<?xml version="1.0" encoding="UTF-8" standalone="no"?>
<svg
   xmlns:dc="http://purl.org/dc/elements/1.1/"
   xmlns:cc="http://creativecommons.org/ns#"
   xmlns:rdf="http://www.w3.org/1999/02/22-rdf-syntax-ns#"
   xmlns:svg="http://www.w3.org/2000/svg"
   xmlns="http://www.w3.org/2000/svg"
   xmlns:sodipodi="http://sodipodi.sourceforge.net/DTD/sodipodi-0.dtd"
   xmlns:inkscape="http://www.inkscape.org/namespaces/inkscape"
   id="a2995fdc-ba4a-4390-a70c-27b90cf54d89"
   data-name="Layer 1"
   width="908.62314"
   height="777.89947"
   viewBox="0 0 908.62314 777.89947"
   version="1.1"
   sodipodi:docname="social_distance.svg"
   inkscape:version="0.92.5 (2060ec1f9f, 2020-04-08)">
  <metadata
     id="metadata177">
    <rdf:RDF>
      <cc:Work
         rdf:about="">
        <dc:format>image/svg+xml</dc:format>
        <dc:type
           rdf:resource="http://purl.org/dc/dcmitype/StillImage" />
      </cc:Work>
    </rdf:RDF>
  </metadata>
  <defs
     id="defs175" />
  <sodipodi:namedview
     pagecolor="#ffffff"
     bordercolor="#666666"
     borderopacity="1"
     objecttolerance="10"
     gridtolerance="10"
     guidetolerance="10"
     inkscape:pageopacity="0"
     inkscape:pageshadow="2"
     inkscape:window-width="640"
     inkscape:window-height="480"
     id="namedview173"
     showgrid="false"
     inkscape:zoom="0.3033811"
     inkscape:cx="454.31158"
     inkscape:cy="388.94974"
     inkscape:window-x="64"
     inkscape:window-y="27"
     inkscape:window-maximized="0"
     inkscape:current-layer="a2995fdc-ba4a-4390-a70c-27b90cf54d89" />
  <title
     id="title2">social_distancing</title>
  <ellipse
     cx="-785.05188"
     cy="330.5481"
     rx="95.372467"
     ry="194.59837"
     id="ellipse4"
     transform="scale(-1,1)"
     style="fill:#0be881" />
  <path
     d="m 785.92749,332.56651 c -4.7574,-84.70728 -14.34278,-141.9244 -14.43909,-142.49248 l 2.07973,-0.35229 c 0.0963,0.5686 9.69868,57.8774 14.46381,142.69386 4.39739,78.28064 5.45837,196.68479 -14.4633,316.21379 l -2.08075,-0.3461 c 19.88766,-119.32608 18.82927,-237.551 14.4396,-315.71678 z"
     id="path6"
     inkscape:connector-curvature="0"
     style="fill:#3f3d56" />
  <rect
     x="-852.15948"
     y="-73.595428"
     width="97.80632"
     height="2.10972"
     transform="matrix(-0.88165867,-0.47188768,-0.47188768,0.88165867,0,0)"
     id="rect8"
     style="fill:#3f3d56" />
  <rect
     x="-692.38544"
     y="-624.31305"
     width="2.10972"
     height="97.80632"
     transform="matrix(-0.47165223,-0.88178465,-0.88178465,0.47165223,0,0)"
     id="rect10"
     style="fill:#3f3d56" />
  <ellipse
     cx="-123.72957"
     cy="252.45831"
     rx="123.72957"
     ry="252.45831"
     id="ellipse12"
     transform="scale(-1,1)"
     style="fill:#0be881" />
  <path
     d="M 125.2324,255.04453 C 119.05955,145.1334 106.62155,70.89267 106.49655,70.15537 l 1.97168,-0.334 c 0.125,0.73779 12.5791,75.06542 18.75928,185.08007 5.70459,101.5376 7.08057,255.11768 -18.75879,410.15284 l -1.97266,-0.32813 C 132.3032,509.88242 130.92918,356.47324 125.2324,255.04453 Z"
     id="path14"
     inkscape:connector-curvature="0"
     style="fill:#3f3d56" />
  <rect
     x="-233.44832"
     y="171.60815"
     width="126.88732"
     height="2.0001199"
     transform="matrix(-0.88165703,-0.47189076,-0.47189076,0.88165703,0,0)"
     id="rect16"
     style="fill:#3f3d56" />
  <rect
     x="-320.35498"
     y="-104.15647"
     width="2.0001199"
     height="126.88732"
     transform="matrix(-0.47165223,-0.88178465,-0.88178465,0.47165223,0,0)"
     id="rect18"
     style="fill:#3f3d56" />
  <ellipse
     cx="-272.80316"
     cy="478.96817"
     rx="46.22863"
     ry="94.325089"
     id="ellipse20"
     transform="scale(-1,1)"
     style="fill:#e6e6e6" />
  <path
     d="m 272.84391,483.03196 -0.27362,0.51159 -41.79785,-22.37207 0.94336,-1.76367 41.041,21.967 c -2.27112,-41.80139 -6.91614,-69.86267 -7.00977,-70.41522 l 1.97168,-0.334 c 0.10223,0.6034 5.62122,33.92652 7.58014,82.1449 l 41.39349,-22.15564 0.94336,1.76367 -41.79785,22.37207 -0.499,-0.9328 c 1.56732,39.79737 0.68884,89.55964 -7.61969,139.41034 l -1.97266,-0.32812 c 9.05872,-54.35249 9.25824,-108.60279 7.09741,-149.86805 z"
     id="path22"
     inkscape:connector-curvature="0"
     style="fill:#3f3d56" />
  <path
     d="m 38.565993,685.76573 c 246.232417,-77.94726 469.508787,-73.79492 613.454587,-56.585 155.94727,18.64459 254.90381,56.18854 255.88477,56.56549 l 0.71777,-1.86719 C 907.63923,683.5011 808.44978,645.86829 652.25788,627.19446 a 1486.9204,1486.9204 0 0 0 -276.89013,-7.083 1444.325,1444.325 0 0 0 -337.405277,63.748 z"
     id="path24"
     inkscape:connector-curvature="0"
     style="fill:#3f3d56" />
  <path
     d="m 592.11136,663.73657 c 0,0 -0.69057,-14.46983 -14.84713,-12.78791"
     id="path26"
     inkscape:connector-curvature="0"
     style="fill:#3f3d56" />
  <circle
     cx="-596.11139"
     cy="642.88147"
     r="7.0852599"
     id="circle28"
     transform="scale(-1,1)"
     style="fill:#0be881" />
  <rect
     x="-597.26422"
     y="654.81262"
     width="2"
     height="14"
     id="rect30"
     transform="scale(-1,1)"
     style="fill:#3f3d56" />
  <path
     d="m 334.11136,666.73657 c 0,0 -0.69057,-14.46983 -14.84713,-12.78791"
     id="path32"
     inkscape:connector-curvature="0"
     style="fill:#3f3d56" />
  <circle
     cx="-338.11133"
     cy="645.88147"
     r="7.0852599"
     id="circle34"
     transform="scale(-1,1)"
     style="fill:#0be881" />
  <rect
     x="-339.26422"
     y="657.81262"
     width="2"
     height="14"
     id="rect36"
     transform="scale(-1,1)"
     style="fill:#3f3d56" />
  <path
     d="m 759.11136,641.73657 c 0,0 -0.69057,-14.46983 -14.84713,-12.78791"
     id="path38"
     inkscape:connector-curvature="0"
     style="fill:#3f3d56" />
  <circle
     cx="-763.11133"
     cy="620.88147"
     r="7.0852599"
     id="circle40"
     transform="scale(-1,1)"
     style="fill:#0be881" />
  <rect
     x="-764.26422"
     y="632.81262"
     width="2"
     height="14"
     id="rect42"
     transform="scale(-1,1)"
     style="fill:#3f3d56" />
  <path
     d="m 650.11136,622.73657 c 0,0 -0.69057,-14.46983 -14.84713,-12.78791"
     id="path44"
     inkscape:connector-curvature="0"
     style="fill:#3f3d56" />
  <circle
     cx="-654.11133"
     cy="601.88147"
     r="7.0852599"
     id="circle46"
     transform="scale(-1,1)"
     style="fill:#0be881" />
  <rect
     x="-655.26422"
     y="613.81262"
     width="2"
     height="14"
     id="rect48"
     transform="scale(-1,1)"
     style="fill:#3f3d56" />
  <path
     d="m 377.11136,649.73657 c 0,0 -0.69057,-14.46983 -14.84713,-12.78791"
     id="path50"
     inkscape:connector-curvature="0"
     style="fill:#3f3d56" />
  <circle
     cx="-381.11133"
     cy="628.88147"
     r="7.0852599"
     id="circle52"
     transform="scale(-1,1)"
     style="fill:#0be881" />
  <rect
     x="-382.26422"
     y="640.81262"
     width="2"
     height="14"
     id="rect54"
     transform="scale(-1,1)"
     style="fill:#3f3d56" />
  <path
     d="m 69.609453,620.72948 -41.15828,61.0278 38.31978,38.31978 4.96738,-9.93476 -8.51551,-19.86951 c 0,0 1.41925,-18.45027 6.38663,-23.41765 4.96738,-4.96738 26.96577,-34.77165 26.96577,-34.77165 z"
     id="path56"
     inkscape:connector-curvature="0"
     style="fill:#ffb8b8" />
  <path
     d="m 122.12174,423.45358 c 0,0 -7.80435,12.35225 8.517,65.57417 0,0 -76.129997,128.48795 -64.066367,137.00346 12.06363,8.51551 44.708857,27.361 53.224367,21.684 8.51551,-5.677 70.44905,-198.00548 70.44905,-198.00548 z"
     id="path58"
     inkscape:connector-curvature="0"
     style="fill:#2f2e41" />
  <path
     d="m 35.902243,670.75808 -12.41845,12.41845 c -6.38663,6.38663 -10.64439,15.61176 1.41925,23.41764 12.06364,7.80588 53.93151,36.90056 68.12405,27.6754 14.192537,-9.22516 -17.031,-17.74064 -17.031,-17.74064 0,0 -5.163,-19.14312 -7.90367,-14.89375 -2.74067,4.24937 -2.74071,12.76488 -2.74071,12.76488 z"
     id="path60"
     inkscape:connector-curvature="0"
     style="fill:#2f2e41" />
  <path
     d="m 185.98804,654.08188 c 0,0 22.708,41.86791 22.708,46.83529 0,4.96738 -1.41925,19.15989 -1.41925,19.15989 l 43.28716,10.64438 14.90213,-7.09625 -4.96738,-12.77326 c 0,0 -26.96577,-9.22513 -32.64277,-26.96577 -5.677,-17.74064 -12.06364,-36.19091 -12.06364,-36.19091 z"
     id="path62"
     inkscape:connector-curvature="0"
     style="fill:#ffb8b8" />
  <circle
     cx="-159.73189"
     cy="207.72742"
     r="29.80427"
     id="circle64"
     transform="scale(-1,1)"
     style="fill:#ffb8b8" />
  <path
     d="m 167.53778,233.27393 -14.22936,40.88508 -31.18668,-13.91928 c 0,0 21.28881,-32.64281 21.28881,-36.90056 z"
     id="path66"
     inkscape:connector-curvature="0"
     style="fill:#ffb8b8" />
  <path
     d="M 171.79555,378.74717 H 134.1854 c 0,0 -26.96578,41.15828 -11.354,84.44544 2.39072,6.62882 4.764,15.91425 7.13271,26.89228 5.44757,25.2469 10.87142,59.44586 16.42968,90.87152 7.80743,44.1422 15.88,82.81253 24.65611,83.51462 17.74064,1.41925 52.23873,1.18244 52.23873,-5.91382 0,-7.09626 -23.108,-212.39562 -23.108,-212.39562 l -4.96738,-8.5155 -0.93889,-37.0924 a 22.37292,22.37292 0 0 0 -22.47881,-21.80652 z"
     id="path68"
     inkscape:connector-curvature="0"
     style="fill:#2f2e41" />
  <path
     d="m 209.05087,700.56236 c 0,0 -8.16069,13.8377 -6.03182,23.77245 2.12887,9.93475 5.677,8.51551 21.28877,9.93476 15.61177,1.41925 68.83373,1.41925 68.83373,-8.51551 0,-9.93476 -41.51765,-22.83651 -41.69278,-18.86932 -0.17513,3.96719 -1.59438,11.77307 2.66337,13.19232 4.25775,1.41925 0.35482,0.35481 0.35482,0.35481 z"
     id="path70"
     inkscape:connector-curvature="0"
     style="fill:#2f2e41" />
  <path
     d="m 167.5318,467.31998 c 0,0 3.08711,50.40877 23.6759,35.40206 20.58879,-15.00671 -8.02355,-42.1147 -8.02355,-42.1147 z"
     id="path72"
     inkscape:connector-curvature="0"
     style="fill:#ffffff" />
  <path
     d="m 126.43944,400.93024 a 5.97691,5.97691 0 0 1 -6.11867,-0.72426 6.26925,6.26925 0 0 1 -2.32148,-3.95407 c -2.97657,-17.16055 -6.60075,-64.73426 -8.68825,-88.79059 -2.61936,-30.18586 10.46455,-53.5657 10.57424,-53.708 l 7.71042,-10.60184 a 6.0519,6.0519 0 0 1 7.24767,-2.03428 c 0,0 24.07149,24.97453 24.16018,25.93878 0.37768,4.14064 3.24252,13.31657 18.17514,28.2492 16.33872,16.33871 16.4295,30.59879 16.06776,34.58039 q -0.0356,0.39265 -0.0364,0.78467 a 17.50508,17.50508 0 0 1 -0.71957,5.27949 c -6.84364,21.5755 -1.48429,47.40621 7.122,74.36917 a 6.08122,6.08122 0 0 1 -2.45109,6.599 c -2.51349,1.71 0.5007,-0.82731 -0.39588,0.2713 -5.93143,7.268 -14.46694,-2.86172 -24.23053,-13.91462 -3.40121,-3.85027 -7.25633,-8.2144 -11.7996,-12.75767 -6.24665,-6.247 -18.18242,8.00789 -23.73192,8.00789 a 25.77032,25.77032 0 0 0 -10.56398,2.40544 z"
     id="path74"
     inkscape:connector-curvature="0"
     style="fill:#575a89" />
  <path
     d="m 123.12981,264.76089 c 0,0 -15.58848,13.14643 -6.7324,30.19594 8.85608,17.04951 7.67868,29.62436 7.67868,29.62436 0,0 2.35783,117.12469 30.03044,111.4341 l 12.5875,34.75249 22.73355,-8.2052 -13.14558,-30.65251 c 0,0 10.529,-0.6548 7.45237,-7.8288 -2.16091,-5.03874 -13.80288,-59.71868 -20.54161,-91.82185 -2.85564,-13.60421 -4.83077,-23.15415 -4.83077,-23.15415 0,0 -8.95673,-47.89154 -35.23218,-44.34438 z"
     id="path76"
     inkscape:connector-curvature="0"
     style="fill:#575a89" />
  <polygon
     points="779.998,381.79 784.727,320.297 788.763,324.281 "
     id="polygon78"
     transform="matrix(-1,0,0,1,908.62312,0)"
     style="opacity:0.2" />
  <path
     d="m 192.24926,194.52189 c 0,0 5.01067,-38.99525 -35.873,-26.2078 0,0 -29.1994,-5.35766 -38.775,31.16631 l -9.696,38.28613 4.72533,-2.572 2.203,4.81545 7.65722,1.93919 3.27672,-6.50366 1.58513,7.89789 62.71687,6.25234 c 0,0 -28.08963,-16.612 -28.53506,-46.38472 l 5.35049,5.65407 z"
     id="path80"
     inkscape:connector-curvature="0"
     style="fill:#2f2e41" />
  <polygon
     points="776.999,490.013 765.625,590.611 763.014,583.199 "
     id="polygon82"
     transform="matrix(-1,0,0,1,908.62312,0)"
     style="opacity:0.2" />
  <circle
     cx="-122.75368"
     cy="168.69591"
     r="15.77018"
     id="circle84"
     transform="scale(-1,1)"
     style="fill:#2f2e41" />
  <path
     d="m 139.00349,164.83513 a 15.75777,15.75777 0 0 0 -15.76272,-14.73946 c 0.32565,-0.0413 0.64837,-0.0915 0.98042,-0.11288 a 15.77018,15.77018 0 1 1 2.02364,31.47537 c -0.332,0.0214 -0.65854,0.0129 -0.9868,0.0136 a 15.75777,15.75777 0 0 0 13.74546,-16.63663 z"
     id="path86"
     inkscape:connector-curvature="0"
     style="fill:#2f2e41" />
  <polygon
     points="726.99,416.567 744.974,334.43 740.865,342.202 "
     id="polygon88"
     transform="matrix(-1,0,0,1,908.62312,0)"
     style="opacity:0.2" />
  <path
     d="m 166.89294,229.20553 8.0868,6.0971 c 8.32851,-4.19115 14.575,-13.88834 16.84527,-23.14382 l -8.81225,-4.44638 c -0.69265,9.44004 -7.3935,15.716 -16.11982,21.4931 z"
     id="path90"
     inkscape:connector-curvature="0"
     style="fill:#ffffff" />
  <path
     d="m 163.53464,209.05573 h 20.14978 a 0.67166,0.67166 0 0 0 0,-1.34332 h -20.14978 a 0.67166,0.67166 0 0 0 0,1.34332 z"
     id="path92"
     inkscape:connector-curvature="0"
     style="fill:#ffffff" />
  <path
     d="m 167.56455,229.20553 a 0.67107,0.67107 0 0 0 0.62312,-0.92091 l -5.37327,-13.43319 a 0.67113,0.67113 0 1 0 -1.24625,0.4985 l 5.37328,13.43319 a 0.67052,0.67052 0 0 0 0.62312,0.42241 z"
     id="path94"
     inkscape:connector-curvature="0"
     style="fill:#ffffff" />
  <ellipse
     cx="-162.17915"
     cy="210.09264"
     rx="4.9281802"
     ry="6.8994498"
     id="ellipse96"
     transform="scale(-1,1)"
     style="fill:#ffb8b8" />
  <polygon
     points="451.677,242.887 473.853,201.062 428.974,183.54 399.191,230.876 "
     id="polygon98"
     transform="matrix(-1,0,0,1,908.62312,0)"
     style="fill:#2f2e41" />
  <path
     d="m 481.54606,456.02688 c 0,0 16.87156,38.664 16.87156,49.91169 0,0 -6.67833,30.5797 -4.56938,39.01548 l 7.38131,15.81709 15.46559,-6.32683 4.21789,-42.1789 -0.703,-67.48624 z"
     id="path100"
     inkscape:connector-curvature="0"
     style="fill:#ffb9b9" />
  <path
     d="m 472.05581,224.74591 c 0,0 -1.406,23.1984 1.406,30.22821 2.812,7.02981 -10.54472,20.38647 -10.54472,20.38647 l -21.08954,-27.41628 c 0,0 14.05963,-14.05963 10.54472,-29.52523 z"
     id="path102"
     inkscape:connector-curvature="0"
     style="fill:#ffb9b9" />
  <path
     d="m 515.99216,385.37722 c 0,0 20.38647,37.961 0.703,35.14908 -19.68347,-2.81192 -13.00518,-36.20357 -13.00518,-36.20357"
     id="path104"
     inkscape:connector-curvature="0"
     style="fill:#e6e6e6" />
  <polyline
     points="404.933 384.323 411.611 317.891 411.26 277.47 395.794 280.281 395.794 317.539 392.631 385.377"
     id="polyline106"
     transform="matrix(-1,0,0,1,908.62312,0)"
     style="fill:#ffb9b9" />
  <path
     d="m 520.56155,549.52343 -30.22822,-11.9507 -3.51491,59.75344 c 0,0 -6.32687,18.27756 -4.21787,25.30736 0,0 -1.406,11.95068 2.10895,12.65367 3.51495,0.70299 13.35665,2.10894 14.05963,1.406 0.70298,-0.70294 0.703,-2.81193 0.703,-2.81193 0,0 7.02982,4.92087 7.7328,10.54473 0,0 29.52523,9.13876 30.22821,0.703 0.70298,-8.43576 -14.76261,-15.4656 -14.76261,-15.4656 l -11.95069,-18.27752 z"
     id="path108"
     inkscape:connector-curvature="0"
     style="fill:#2f2e41" />
  <path
     d="m 418.6292,456.02688 c 0,0 16.87156,38.664 16.87156,49.91169 0,0 -6.67832,30.5797 -4.56938,39.01548 l 7.38131,15.81709 15.4656,-6.32683 4.21789,-42.1789 -0.703,-67.48624 z"
     id="path110"
     inkscape:connector-curvature="0"
     style="fill:#ffb9b9" />
  <path
     d="m 456.59021,549.52343 -30.22821,-11.9507 -3.51491,59.75344 c 0,0 -6.32683,18.27752 -4.21789,25.30734 0,0 -1.406,11.95068 2.109,12.65367 3.515,0.70299 13.35665,2.10894 14.05963,1.406 0.70298,-0.70294 0.703,-2.81193 0.703,-2.81193 0,0 7.02982,4.92087 7.7328,10.54473 0,0 29.52523,9.13876 30.22821,0.703 0.70298,-8.43576 -14.76261,-15.4656 -14.76261,-15.4656 l -11.95069,-18.27752 z"
     id="path112"
     inkscape:connector-curvature="0"
     style="fill:#2f2e41" />
  <path
     d="m 442.52571,208.58073 a 22.4967,22.4967 0 0 0 44.44619,4.92186 21.79764,21.79764 0 0 0 0.55068,-4.92186 22.49844,22.49844 0 0 0 -44.99687,0 z"
     id="path114"
     inkscape:connector-curvature="0"
     style="fill:#ffb9b9" />
  <path
     d="m 462.21407,253.56816 -17.45674,-9.06537 -7.8506,6.25344 c 0,0 -18.98051,-0.703 -26.01033,7.7328 -7.02982,8.4358 -10.89621,29.8767 -10.89621,29.8767 0,0 23.19839,-4.92087 20.38647,14.76262 l 4.21789,-11.24769 3.8664,9.49025 47.09977,16.16858 21.08945,-35.85206 c 0,0 14.05963,-4.21789 18.9805,5.62385 0,0 -1.05447,-35.50057 -14.76261,-36.555 -9.21905,-0.70915 -16.16858,-0.703 -16.16858,-0.703 l -7.7328,-1.406 -4.95194,-1.75745 z"
     id="path116"
     inkscape:connector-curvature="0"
     style="fill:#575a89" />
  <path
     d="m 432.33743,330.54473 c 0,0 -36.90662,110.71956 -26.3619,126.18516 0,0 39.367,19.68348 118.10092,-7.02982 l -31.9856,-124.07624 q -29.47119,-6.0271 -59.75342,4.9209 z"
     id="path118"
     inkscape:connector-curvature="0"
     style="fill:#2f2e41" />
  <path
     d="m 432.33743,330.54473 -10.38705,-35.69436 c 12.45993,-13.55038 1.70576,-43.59776 1.70576,-43.59776 l 15.03427,-3.22163 c 0,0 15.08788,40.68629 30.55347,35.76542 15.46559,-4.92087 7.02982,-36.555 7.02982,-36.555 l 14.05963,1.406 6.32684,24.60436 -4.56932,52.37215 c -19.05664,-1.63463 -39.04297,0.26747 -59.75342,4.92082 z"
     id="path120"
     inkscape:connector-curvature="0"
     style="fill:#575a89" />
  <polyline
     points="494.563 384.323 499.484 317.539 500.89 277.47 485.425 280.281 485.425 317.539 482.261 385.377"
     id="polyline122"
     transform="matrix(-1,0,0,1,908.62312,0)"
     style="fill:#ffb9b9" />
  <path
     d="m 426.362,385.37722 c 0,0 20.38647,37.961 0.703,35.14908 -19.68347,-2.81192 -13.00518,-36.20357 -13.00518,-36.20357"
     id="path124"
     inkscape:connector-curvature="0"
     style="fill:#ffffff" />
  <path
     d="m 400.00019,288.36573 c 0,0 2.49889,-36.10212 23.39337,-35.97709 v 41.7504 c 0,0 -15.66057,-9.2882 -23.39337,-5.77331 z"
     id="path126"
     inkscape:connector-curvature="0"
     style="fill:#575a89" />
  <path
     d="m 457.83068,214.38597 a 0.57367,0.57367 0 0 0 0.35852,-1.0218 l -11.47291,-9.17833 a 0.57392,0.57392 0 1 0 -0.717,0.89632 l 11.47291,9.17833 a 0.57433,0.57433 0 0 0 0.35848,0.12548 z"
     id="path128"
     inkscape:connector-curvature="0"
     style="fill:#ffffff" />
  <path
     d="m 456.96245,228.15347 c 0.25237,0.30972 0.50474,0.61951 0.76859,0.90633 a 22.498,22.498 0 0 0 31.24086,-15.55726 l -10.87124,-2 -21.13821,2 c 4.84153,5.89709 4.2564,7.93919 0,14.65093 z"
     id="path130"
     inkscape:connector-curvature="0"
     style="fill:#ffffff" />
  <path
     d="m 477.72717,177.09115 c 0,0 11.62689,2.187 14.31567,16.68788 a 26.62077,26.62077 0 0 1 0.2277,7.40429 c -0.26848,2.79126 0.121,8.68672 6.18175,15.62856 a 151.96767,151.96767 0 0 1 11.03539,14.17242 v 0 l -12.14907,3.23424 -5.42817,-20.12881 a 102.97,102.97 0 0 0 -12.03225,-27.655 l -0.1116,-0.17906 c 0,0 -4.03511,10.7817 -14.8503,12.25976 l 3.33469,-4.39044 c 0,0 -12.643,7.30862 -19.806,9.54126 a 4.7063,4.7063 0 0 0 -1.51868,8.1838 q 0.0762,0.0599 0.15523,0.12 c 5.26853,4.00163 16.01675,13.54991 11.77049,22.78659 -4.24626,9.23668 0.70555,10.92077 0.70555,10.92077 l -9.13111,-3.47375 -4.17929,-1.78966 0.4223,3.09005 -20.40208,0.42743 c 0,0 -5.51317,-0.0335 4.27975,-14.74985 0,0 2.36295,-5.51806 0.42307,-9.73367 a 22.393,22.393 0 0 1 -2.2614,-10.26077 c 0.61674,-14.83685 6.86689,-45.02104 49.01836,-32.09604 z"
     id="path132"
     inkscape:connector-curvature="0"
     style="fill:#2f2e41" />
  <path
     d="m 763.9272,599.71293 c 0,0 0,95.4619 21.90929,120.50109 0,0 4.69485,12.5196 6.2598,17.21445 a 65.79875,65.79875 0 0 0 3.12989,7.82474 v 6.2598 c 0,0 42.25363,-4.69485 46.94848,-15.64949 l -7.82474,-9.3897 c 0,0 -1.56495,-1.56495 0,-6.2598 1.56495,-4.69485 -3.1299,-4.69484 -3.1299,-4.69484 l -10.95465,-25.03919 1.56495,-103.28666 -7.82477,-142.41038 -67.29282,-3.1299 z"
     id="path134"
     inkscape:connector-curvature="0"
     style="fill:#2f2e41" />
  <path
     d="m 798.35608,742.12331 c 0,0 -10.95464,32.86394 0,34.42889 10.95464,1.56495 106.41655,3.1299 104.8516,-9.3897 -1.56495,-12.5196 -32.86393,-10.95464 -32.86393,-10.95464 l -32.86394,-20.34434 z"
     id="path136"
     inkscape:connector-curvature="0"
     style="fill:#2f2e41" />
  <path
     d="m 701.32923,444.78295 c 0,0 -3.1299,20.34434 9.38969,42.25363 12.51959,21.90929 4.69485,95.46191 4.69485,95.46191 l -111.1114,97.02685 c 0,0 21.90929,37.55878 29.734,35.99384 7.82471,-1.56494 131.45578,-101.72171 131.45578,-101.72171 l 48.5134,-162.75474 z"
     id="path138"
     inkscape:connector-curvature="0"
     style="fill:#2f2e41" />
  <path
     d="m 605.8293,675.37873 c 0,0 -33.62247,8.341 -29.07974,18.43142 4.54273,10.09042 54.32622,91.5584 64.06288,83.53426 9.73666,-8.02414 -8.341,-33.62247 -8.341,-33.62247 l -0.41015,-38.64922 z"
     id="path140"
     inkscape:connector-curvature="0"
     style="fill:#2f2e41" />
  <path
     d="m 726.36855,153.70502 a 35.79163,35.79163 0 0 0 8.02355,22.63684 35.90387,35.90387 0 0 0 34.93408,12.67061 34.92342,34.92342 0 0 0 9.24888,-3.18261 35.97122,35.97122 0 0 0 18.73706,-23.51835 35.453,35.453 0 0 0 1.04585,-8.60649 35.99471,35.99471 0 1 0 -71.98942,0 z"
     id="path142"
     inkscape:connector-curvature="0"
     style="fill:#a0616a" />
  <path
     d="m 734.04167,166.40226 1.592,46.31734 30.28613,11.96646 c 0,0 2.97008,-47.42592 7.16265,-50.05519 4.19257,-2.62927 -39.04078,-8.22861 -39.04078,-8.22861 z"
     id="path144"
     inkscape:connector-curvature="0"
     style="fill:#a0616a" />
  <path
     d="m 773.31689,230.38489 c 0,0 -42.25363,-42.25363 -53.20827,-40.68868 -10.95464,1.56495 -10.95465,6.2598 -10.95465,9.3897 0,3.1299 3.1299,4.69485 0,6.2598 -3.1299,1.56495 -6.25979,0 -6.25979,4.69484 0,4.69484 -28.16909,51.64333 -18.7794,103.28666 9.38969,51.64333 20.34434,76.68251 15.6495,104.8516 -4.69484,28.16909 -1.56495,34.42888 -1.56495,34.42888 0,0 117.37122,9.3897 118.93614,-1.56496 1.56492,-10.95466 -4.69484,-4.69485 3.1299,-12.5196 7.82474,-7.82475 4.69485,-7.82475 4.69485,-12.51959 0,-4.69484 -34.42888,-195.61865 -51.64333,-195.61865 z"
     id="path146"
     inkscape:connector-curvature="0"
     style="fill:#575a89" />
  <path
     d="m 751.40755,443.218 c 0,0 18.77945,45.38353 32.864,34.42888 14.08455,-10.95465 -6.2598,-48.51343 -6.2598,-48.51343 z"
     id="path148"
     inkscape:connector-curvature="0"
     style="fill:#ffffff" />
  <path
     d="m 706.02407,233.51479 c 0,0 -36.76854,4.20949 -23.07911,71.745 13.68943,67.53551 66.89769,145.78294 66.89769,145.78294 l 35.99384,-17.21445 -46.94848,-92.332 10.95464,-57.90311 c 0,0 6.2598,-54.77322 -43.81858,-50.07838 z"
     id="path150"
     inkscape:connector-curvature="0"
     style="fill:#575a89" />
  <polygon
     points="118.874,428.351 123.569,433.046 170.518,342.279 "
     id="polygon152"
     transform="matrix(-1,0,0,1,908.62312,0)"
     style="opacity:0.2" />
  <polygon
     points="156.433,450.26 170.518,450.26 197.853,382.389 "
     id="polygon154"
     transform="matrix(-1,0,0,1,908.62312,0)"
     style="opacity:0.2" />
  <rect
     x="-933.97668"
     y="185.89525"
     width="2.2267799"
     height="115.56155"
     transform="matrix(-0.93434847,-0.35636067,-0.35636067,0.93434847,0,0)"
     id="rect156"
     style="opacity:0.2" />
  <circle
     cx="-773.09503"
     cy="236.75108"
     r="2.2262499"
     id="circle158"
     transform="scale(-1,1)"
     style="fill:#d0cde1" />
  <line
     x1="773.09503"
     y1="236.75108"
     x2="792.01819"
     y2="297.97299"
     id="line160"
     style="fill:none" />
  <path
     d="m 792.01817,299.08612 a 1.11255,1.11255 0 0 1 -1.06312,-0.78484 l -18.92314,-61.22137 a 1.11282,1.11282 0 1 1 2.12625,-0.65766 l 18.92314,61.22248 a 1.114,1.114 0 0 1 -1.06313,1.44141 z"
     id="path162"
     inkscape:connector-curvature="0"
     style="fill:#d0cde1" />
  <path
     d="m 769.5801,181.27264 8.995,8.55722 c 9.26383,-4.66183 18.2118,-17.22344 20.73706,-27.51835 l -11.8019,-4.94573 c -0.77046,10.5002 -8.22384,17.48095 -17.93016,23.90686 z"
     id="path164"
     inkscape:connector-curvature="0"
     style="fill:#ffffff" />
  <path
     d="m 767.33737,161.84832 a 0.74632,0.74632 0 0 0 0.10652,-0.007 l 20.9185,-2.98836 a 0.74721272,0.74721272 0 1 0 -0.21012,-1.47958 l -20.9185,2.98835 a 0.74714,0.74714 0 0 0 0.1036,1.48689 z"
     id="path166"
     inkscape:connector-curvature="0"
     style="fill:#ffffff" />
  <path
     d="m 770.32719,181.27264 a 0.7464,0.7464 0 0 0 0.65078,-1.11334 l -6.931,-12.33865 a 0.74677,0.74677 0 1 0 -1.30157,0.7325 l 6.931,12.33865 a 0.74537,0.74537 0 0 0 0.65079,0.38084 z"
     id="path168"
     inkscape:connector-curvature="0"
     style="fill:#ffffff" />
  <path
     d="m 746.07097,175.33091 c 2.91392,-1.54067 6.29879,-1.85831 9.45277,-2.81594 11.284,-3.4261 18.84319,-16.18211 16.42984,-27.72523 a 14.14679,14.14679 0 0 1 -0.59266,-4.56945 c 0.42187,-3.41873 3.92005,-5.62462 7.27446,-6.40793 3.35441,-0.78331 6.92345,-0.66954 10.12956,-1.92914 4.95028,-1.94484 8.23855,-7.03211 8.95138,-12.30275 0.71283,-5.27064 -0.85107,-10.64613 -3.39478,-15.317 l -1.21166,3.48662 a 12.9329,12.9329 0 0 1 -3.959,-5.92118 8.15635,8.15635 0 0 0 -6.21452,4.9975 c -1.94489,1.14685 -2.22506,-3.56292 -4.37334,-4.25772 -0.89956,-0.29094 -1.82459,0.26175 -2.68142,0.66138 -4.32884,2.019 -9.35827,0.29275 -14.00184,-0.82639 a 52.709,52.709 0 0 0 -24.46832,-0.0288 c -5.3451,1.27491 -10.6358,3.495 -14.46058,7.44041 -3.14109,3.24017 -5.09822,7.43011 -6.76463,11.62394 -4.10226,10.32412 -6.81231,21.49515 -5.45807,32.52157 a 46.03362,46.03362 0 0 0 10.84846,24.3902 c 3.09742,3.56865 13.20293,16.01874 18.74393,13.89615 6.96235,-2.66712 -2.453,-12.57884 5.75042,-16.91623 z"
     id="path170"
     inkscape:connector-curvature="0"
     style="fill:#2f2e41" />
</svg>
